# xmcd
#
# Track frame offsets:
# 150
# 16768
# 27971
# 45633
# 59402
# 70290
# 87560
# 102161
# 115242
# 130861
# 148889
# 164962
# 180342
# 191402
#
# Disc length: 2742 seconds
#
#
# Revision: 1
# Processed by: cddbd v1.5.1PL0 Copyright (c) Steve Scherf et al.
# Submitted via: FreeRIP 2.942 
#
DISCID=c60ab40e
DTITLE=Vários - Clima de Rodeio
DYEAR=2005
DGENRE=Sertanejo
TTITLE0=De Barretos a Nashville  - Rick and Renner
TTITLE1=Rei da Festa  - Rionegro and Solimões
TTITLE2=Dia de Rodeio  - Leandro and Leonardo
TTITLE3=Zoião  - Edson and Hudson
TTITLE4=Pé de Bode ( Pisa no Freio, Zé )  - Cezar and Paulinho
TTITLE5=Lorota  - Gino and Geno
TTITLE6=Eu Quero Ser Feliz  - Paula Hunter
TTITLE7=Xonado Eu Tô  - Nalva Aguiar
TTITLE8=Se Essa Moda Pega  - Guilherme and Santiago
TTITLE9=Vai e Vem  - Edson and Hudson
TTITLE10=Não Empurra Não  - Daniel
TTITLE11=Pura Emoção  - Chitãozinho and Xororó
TTITLE12=O Garanhão da Madrugada  - Teodoro and Sampaio
TTITLE13=Vou Ligeiro  - Ferdinando and Forasteiro
EXTD=
EXTT0=
EXTT1=
EXTT2=
EXTT3=
EXTT4=
EXTT5=
EXTT6=
EXTT7=
EXTT8=
EXTT9=
EXTT10=
EXTT11=
EXTT12=
EXTT13=
PLAYORDER=
